<svg xmlns="http://www.w3.org/2000/svg" viewBox="0 0 1028.59 261.83"><defs fill="#ffffff"><style>.cls-1{fill:#ffffff}.cls-2{fill:#2cade3}.cls-4,.cls-5{fill:none;stroke:#fff;stroke-linecap:round;stroke-linejoin:round}.cls-4{stroke-width:7px}.cls-5{stroke-width:7.17px}</style></defs><g id="Layer_2" data-name="Layer 2"><g id="Layer_1-2" data-name="Layer 1"><path class="cls-1" d="M327.7 111.74a4.19 4.19 0 118.38 0v6.75a31.09 31.09 0 0110.66-7.76 32.87 32.87 0 0113.5-2.77 32 32 0 0112.83 2.57 32.38 32.38 0 0110.33 7 34 34 0 017 10.33 31.82 31.82 0 01-.07 25.17 33.9 33.9 0 01-7.09 10.4 34.37 34.37 0 01-10.33 7.09 29.91 29.91 0 01-12.35 2.63 29.18 29.18 0 01-13.77-3.85 44.24 44.24 0 01-10.66-8.44v32.54a4.19 4.19 0 11-8.38 0zm8.38 28.62a24.6 24.6 0 002.16 9.72 26 26 0 005.26 7.7 23.57 23.57 0 0016.74 6.88 23.77 23.77 0 009.45-1.89 24 24 0 0013-13 24 24 0 001.89-9.45 23.47 23.47 0 00-1.89-9.38 24.51 24.51 0 00-5.2-7.7 24.25 24.25 0 00-7.76-5.19 24 24 0 00-9.45-1.89 23.28 23.28 0 00-9.18 1.82 24.59 24.59 0 00-7.6 5.02 24.93 24.93 0 00-5.26 7.35 22.3 22.3 0 00-2.16 9.12zM451 107.83a29.75 29.75 0 0112.35 2.63 34.08 34.08 0 0117.42 17.48 31 31 0 012.63 12.69v28.49a4.19 4.19 0 11-8.37 0v-8.24a42.49 42.49 0 01-10.73 8.58 27 27 0 01-13.55 3.54 32.62 32.62 0 01-22.95-9.18 31.43 31.43 0 01-7-10.26 32.34 32.34 0 01-2.57-13 32.76 32.76 0 012.5-12.75A32 32 0 01438 110.39a32.82 32.82 0 0113-2.56zm-24.44 32.8a23.51 23.51 0 001.89 9.39 24.44 24.44 0 0012.9 12.89 24.14 24.14 0 0018.56.07 24.38 24.38 0 0012.89-12.69 26.82 26.82 0 002.23-9.66 24 24 0 00-1.89-9.45 24.1 24.1 0 00-13-13 24 24 0 00-9.45-1.89 23.43 23.43 0 00-9.38 1.89 24.57 24.57 0 00-7.7 5.2 24.22 24.22 0 00-5.2 7.76 24 24 0 00-1.83 9.49zM519.92 182.49a4.21 4.21 0 012.91-1.29 3.76 3.76 0 012.9 1.15 25 25 0 007.7 5.27 23.42 23.42 0 009.45 1.89 24.16 24.16 0 009.45-1.89 24.26 24.26 0 0013-12.9 23.43 23.43 0 001.89-9.38v-3a32.5 32.5 0 01-10.74 7.9 32 32 0 01-13.56 2.9 32.62 32.62 0 01-23-9.18 31.53 31.53 0 01-7-10.26 32.34 32.34 0 01-2.56-13 31.88 31.88 0 012.5-12.63 32.24 32.24 0 016.88-10.26 33.81 33.81 0 0110.4-7 35.61 35.61 0 0113-2.9 31.8 31.8 0 0113.23 3.11 34.2 34.2 0 0110.8 8.1v-5.94a4.19 4.19 0 118.37 0v52.11a30.89 30.89 0 01-2.54 12.54 34.09 34.09 0 01-7 10.33 32.54 32.54 0 01-10.33 7 32.15 32.15 0 01-12.82 2.56 32.3 32.3 0 01-23-9.18l-.13-.13a3.86 3.86 0 01-1.15-3 4.28 4.28 0 011.35-2.92zm-1.21-41.72a23.43 23.43 0 001.89 9.38A24.38 24.38 0 00533.49 163a24.17 24.17 0 0018.57.07 25.17 25.17 0 007.62-4.93 23.65 23.65 0 005.27-7.29 24.4 24.4 0 002.23-9v-2a25 25 0 00-2.23-9.11 24.37 24.37 0 00-5.27-7.43 24.78 24.78 0 00-7.62-5 24.17 24.17 0 00-18.57.07 24.2 24.2 0 00-12.89 13 24 24 0 00-1.89 9.39zM694.46 111.74a4.19 4.19 0 118.37 0v6.62a32.54 32.54 0 0110.39-7.77 31.78 31.78 0 0113.23-3 4.82 4.82 0 013.45 1.21 4.09 4.09 0 010 5.94 4.83 4.83 0 01-3.45 1.22 23.29 23.29 0 00-9 2 25.41 25.41 0 00-7.36 5 25 25 0 00-5.13 7.29 22.39 22.39 0 00-2.09 8.91V169a4.19 4.19 0 11-8.37 0z" fill="#ffffff"/><path class="cls-2" d="M801.41 110.19a5.86 5.86 0 00-4.26-1.73h-12.61V91.09a5.94 5.94 0 00-1.72-4.24 5.93 5.93 0 00-8.41 0 5.91 5.91 0 00-1.71 4.24v17.37h-12.61a6 6 0 100 12h12.61V169a6 6 0 1012 0v-48.57h12.52a5.88 5.88 0 004.24-1.74 6 6 0 000-8.5zM860.87 107.46a6.6 6.6 0 00-4.72-1.7 33.56 33.56 0 00-14 3.21 35.08 35.08 0 00-7.82 5.09v-2.32a6 6 0 10-12 0V169a6 6 0 1012 0v-29.8a20.63 20.63 0 011.92-8.2 23.23 23.23 0 014.76-6.77 23.75 23.75 0 016.84-4.64 21.65 21.65 0 018.31-1.86 6.58 6.58 0 004.68-1.71 5.9 5.9 0 000-8.56z" fill="#ffffff"/><circle cx="130.91" cy="130.91" r="130.91" fill="#2eaee4"/><path class="cls-4" d="M103.79 242.31v-87.5H63.67l-26.21-25.62" fill="#ffffff"/><path class="cls-5" d="M72.36 134.44l18.24 18.24" fill="#ffffff"/><path class="cls-4" d="M127.79 220.31v-94.77L72.13 70.1M153.79 239.31v-78.58l22.67-21.92h43.83M130.29 141.81h16.79l64.22-64.14" fill="#ffffff"/><path class="cls-5" d="M154.12 190.98l21.27-21.28M189.72 136.45l13.35-13.36" fill="#ffffff"/><path class="cls-4" d="M121.29 121.81H91.04L66.86 98.14" fill="#ffffff"/><path class="cls-5" d="M112.55 106.97l21.28-21.29" fill="#ffffff"/><circle class="cls-5" cx="67.7" cy="63.43" r="5.99" fill="#ffffff"/><circle class="cls-5" cx="61.84" cy="90.8" r="5.99" fill="#ffffff"/><circle class="cls-5" cx="140.04" cy="79.72" r="5.99" fill="#ffffff"/><circle class="cls-5" cx="184.35" cy="63.43" r="5.99" fill="#ffffff"/><circle class="cls-5" cx="139.39" cy="47.13" r="5.99" fill="#ffffff"/><circle class="cls-5" cx="216.94" cy="70.59" r="5.99" fill="#ffffff"/><circle class="cls-5" cx="209.12" cy="116.86" r="5.99" fill="#ffffff"/><circle class="cls-5" cx="181.09" cy="164.43" r="5.99" fill="#ffffff"/><circle class="cls-5" cx="76.17" cy="182.68" r="5.99" fill="#ffffff"/><circle class="cls-5" cx="229.97" cy="138.37" r="5.99" fill="#ffffff"/><circle class="cls-5" cx="31.86" cy="122.73" r="5.99" fill="#ffffff"/><circle class="cls-5" cx="66.4" cy="128.59" r="5.99" fill="#ffffff"/><path class="cls-5" d="M102.6 209.76l-20.71-20.71M94.85 91.22l38.28-38.29" fill="#ffffff"/><path class="cls-4" d="M121.29 100.81h27.75l30.01-30.7" fill="#ffffff"/><path class="cls-1" d="M668.25 139.82a33.09 33.09 0 00-10-22.54 35.17 35.17 0 00-10.19-6.89 29.62 29.62 0 00-12.22-2.56 35.5 35.5 0 00-13 2.9 33.58 33.58 0 00-10.39 7 33.08 33.08 0 00-6.82 35.84 31.43 31.43 0 007 10.26 32.62 32.62 0 0023 9.18l18.27-.01a4 4 0 100-8.1l-18.23-.06h-.09a23.64 23.64 0 01-8.5-1.55 24.39 24.39 0 01-12.56-10.67 22.59 22.59 0 01-2.83-8h52.38a4.61 4.61 0 003-1.22 3.75 3.75 0 001.18-3.58zm-56.43-3.64a25.37 25.37 0 012.9-7.83 22.85 22.85 0 015.27-6.28 25.77 25.77 0 017.15-4.19 23.75 23.75 0 0116.88 0 25.77 25.77 0 017.15 4.19 23.81 23.81 0 015.34 6.28 24.3 24.3 0 013 7.83z" fill="#ffffff"/><path class="cls-2" d="M943.84 139.68A35 35 0 00933.31 116a37.16 37.16 0 00-10.71-7.23 31.53 31.53 0 00-13-2.72 37.42 37.42 0 00-13.68 3 35.55 35.55 0 00-10.95 7.4 34.31 34.31 0 00.22 48.67 34.36 34.36 0 0024.21 9.68l18.31-.07a5.85 5.85 0 000-11.7l-18.33-.03a21.92 21.92 0 01-7.87-1.43 22.62 22.62 0 01-11.64-9.89 21 21 0 01-2.18-5.33h50.17a6.37 6.37 0 004.21-1.65 5.46 5.46 0 001.77-5.02zm-55.94-5.3a23.29 23.29 0 012.18-5.14 21.2 21.2 0 014.85-5.79 24.27 24.27 0 016.66-3.89 21.91 21.91 0 0115.57 0 24.27 24.27 0 016.66 3.89 22.63 22.63 0 017.18 10.93zM1028.54 139.68A35 35 0 001018 116a37.16 37.16 0 00-10.71-7.23 31.55 31.55 0 00-13-2.72 37.52 37.52 0 00-13.69 3 35.62 35.62 0 00-10.94 7.4 34.87 34.87 0 00-7.2 37.83 33.52 33.52 0 007.42 10.84 34.36 34.36 0 0024.2 9.68l18.31-.07a5.85 5.85 0 100-11.7l-18.32-.03a21.9 21.9 0 01-7.86-1.43 22.62 22.62 0 01-11.64-9.89 21.38 21.38 0 01-2.19-5.33h50.18a6.38 6.38 0 004.21-1.65 5.46 5.46 0 001.77-5.02zm-55.94-5.3a23.29 23.29 0 012.18-5.14 21.2 21.2 0 014.85-5.79 24 24 0 016.66-3.89 21.91 21.91 0 0115.57 0 24.27 24.27 0 016.66 3.89 22.63 22.63 0 017.16 10.93z" fill="#ffffff"/></g></g></svg>